<svg xmlns="http://www.w3.org/2000/svg" xmlns:xlink="http://www.w3.org/1999/xlink" width="500" zoomAndPan="magnify" viewBox="0 0 375 374.999991" height="500" preserveAspectRatio="xMidYMid meet" version="1.0"><defs><g/></defs><path fill="#05397f" d="M 152.984375 147.863281 C 149.851562 138.363281 140.964844 135.117188 132.550781 140.480469 C 121.507812 147.527344 116.316406 157.90625 115.652344 167.957031 C 115.402344 185.898438 124.554688 193.332031 136.324219 187.589844 C 148.871094 181.472656 157.371094 161.191406 152.984375 147.863281 Z M 152.984375 147.863281 " fill-opacity="1" fill-rule="nonzero"/><path fill="#05397f" d="M 159.328125 204.777344 C 153.949219 204.375 151.230469 208.058594 152.660156 213.289062 C 153.585938 216.671875 154.816406 220.144531 156.746094 223.015625 C 159.515625 227.164062 159.390625 230.925781 157.597656 235.324219 C 154.714844 242.40625 152.394531 249.714844 151.53125 257.5 C 156.433594 252.460938 159.617188 246.382812 162.375 240.199219 C 164.957031 234.410156 168.390625 230.574219 175.035156 229.808594 C 177.832031 229.496094 180.640625 228.140625 183.144531 226.726562 C 188.234375 223.855469 188.886719 220.292969 184.976562 216.105469 C 178.082031 208.75 169.117188 205.515625 159.328125 204.773438 Z M 159.328125 204.777344 " fill-opacity="1" fill-rule="nonzero"/><path fill="#05397f" d="M 242.226562 181.359375 C 235.253906 178.703125 229.214844 181.648438 224.085938 186.601562 C 216.339844 194.058594 212.703125 203.324219 212.078125 214.351562 C 212.578125 220.546875 213.554688 227.164062 220.214844 230.410156 C 226.871094 233.660156 232.863281 230.902344 238.050781 226.539062 C 246.914062 219.105469 250.785156 209.015625 251.164062 197.882812 C 251.390625 191.152344 249.535156 184.128906 242.226562 181.359375 Z M 242.226562 181.359375 " fill-opacity="1" fill-rule="nonzero"/><path fill="#05397f" d="M 187.496094 2 C 83.953125 2 0 85.9375 0 189.496094 C 0 218.964844 6.792969 246.847656 18.917969 271.65625 C 23.929688 212.625 44.339844 157.117188 77.21875 104.554688 C 98.492188 70.546875 126.722656 43.429688 161.898438 23.8125 C 167.5625 20.652344 173.605469 18.359375 180.011719 17.09375 C 191.769531 14.773438 198.25 19.902344 198.375 31.746094 C 198.515625 45.300781 193.035156 57.371094 187.847656 69.417969 C 183.144531 80.335938 183.03125 80.046875 194.0625 84.835938 C 216.839844 94.703125 239.707031 104.515625 259.160156 120.425781 C 262.570312 123.207031 264.453125 120.949219 266.71875 119.296875 C 279.695312 109.792969 292.882812 100.632812 307.398438 93.597656 C 312.097656 91.328125 316.8125 89.148438 322.117188 88.507812 C 330.566406 87.46875 333.925781 90.238281 333.421875 98.851562 C 332.769531 109.910156 330.164062 120.6875 327.757812 131.46875 C 320.171875 165.453125 311.285156 199.136719 305.332031 233.472656 C 303.261719 245.378906 301.820312 256.9375 309.042969 267.894531 C 318.53125 282.320312 335.792969 287.363281 350.433594 282.347656 C 366.078125 254.96875 375.003906 223.277344 375.003906 189.496094 C 375.003906 85.9375 291.050781 2 187.496094 2 Z M 187.496094 2 " fill-opacity="1" fill-rule="nonzero"/><g fill="#05397f" fill-opacity="1"><g transform="translate(25.314794, 360.066558)"><g><path d="M 28.875 -59.5 C 29.5625 -59.695312 30.242188 -59.660156 30.921875 -59.390625 C 31.609375 -59.117188 32.734375 -58.425781 34.296875 -57.3125 C 34.535156 -57.164062 34.878906 -56.921875 35.328125 -56.578125 C 36.109375 -56.085938 36.628906 -55.734375 36.890625 -55.515625 C 37.160156 -55.296875 37.46875 -54.953125 37.8125 -54.484375 C 38.15625 -54.015625 38.363281 -53.679688 38.4375 -53.484375 C 38.507812 -53.296875 38.59375 -52.832031 38.6875 -52.09375 C 38.789062 -51.363281 38.828125 -50.726562 38.796875 -50.1875 C 38.773438 -49.65625 38.765625 -48.753906 38.765625 -47.484375 C 38.710938 -46.703125 38.6875 -46.117188 38.6875 -45.734375 C 38.5 -40.648438 38.523438 -38.109375 38.765625 -38.109375 C 38.910156 -38.109375 40.863281 -38.570312 44.625 -39.5 L 50.203125 -40.96875 L 53.71875 -40.453125 L 57.15625 -39.859375 L 57.890625 -38.109375 C 58.378906 -36.785156 58.671875 -36.003906 58.765625 -35.765625 C 58.910156 -35.421875 58.429688 -34.695312 57.328125 -33.59375 C 56.234375 -32.5 55.203125 -31.78125 54.234375 -31.4375 C 52.078125 -30.507812 48.65625 -29.753906 43.96875 -29.171875 C 43.476562 -29.066406 42.71875 -28.960938 41.6875 -28.859375 C 40.664062 -28.765625 40.035156 -28.71875 39.796875 -28.71875 L 38.546875 -28.5 L 38.546875 -14.875 L 40.375 -14.875 C 41.9375 -14.875 44.796875 -15.140625 48.953125 -15.671875 C 53.109375 -16.210938 55.523438 -16.628906 56.203125 -16.921875 C 59.035156 -18.148438 61.921875 -17.273438 64.859375 -14.296875 C 65.679688 -13.515625 66.484375 -12.398438 67.265625 -10.953125 C 68.046875 -9.515625 68.4375 -8.503906 68.4375 -7.921875 C 68.4375 -7.035156 68.253906 -6.359375 67.890625 -5.890625 C 67.523438 -5.429688 66.804688 -4.984375 65.734375 -4.546875 C 64.660156 -4.109375 63.890625 -3.863281 63.421875 -3.8125 C 62.960938 -3.757812 62.507812 -3.832031 62.0625 -4.03125 C 61.476562 -4.375 58.460938 -4.335938 53.015625 -3.921875 C 47.566406 -3.503906 42.546875 -2.953125 37.953125 -2.265625 C 36.390625 -1.972656 33.753906 -1.679688 30.046875 -1.390625 C 26.722656 -1.046875 23.445312 -0.535156 20.21875 0.140625 C 17.050781 0.828125 14.953125 1.21875 13.921875 1.3125 C 13.140625 1.363281 12.566406 1.300781 12.203125 1.125 C 11.835938 0.957031 10.992188 0.382812 9.671875 -0.59375 C 6.253906 -3.175781 4.546875 -5.128906 4.546875 -6.453125 C 4.546875 -7.179688 4.738281 -7.546875 5.125 -7.546875 C 5.570312 -7.546875 5.941406 -7.71875 6.234375 -8.0625 C 6.671875 -8.300781 7.15625 -8.347656 7.6875 -8.203125 C 8.175781 -8.015625 8.539062 -8.015625 8.78125 -8.203125 C 9.03125 -8.398438 9.570312 -8.5 10.40625 -8.5 C 11.09375 -8.5 13.726562 -9.070312 18.3125 -10.21875 C 22.90625 -11.363281 25.328125 -12.015625 25.578125 -12.171875 C 25.773438 -12.410156 25.984375 -16.082031 26.203125 -23.1875 C 26.421875 -30.300781 26.53125 -37.007812 26.53125 -43.3125 C 26.53125 -50.832031 26.382812 -54.8125 26.09375 -55.25 C 25.207031 -56.175781 24.910156 -57.128906 25.203125 -58.109375 C 25.398438 -58.503906 25.597656 -58.757812 25.796875 -58.875 C 25.992188 -59 26.410156 -59.132812 27.046875 -59.28125 C 28.160156 -59.425781 28.769531 -59.5 28.875 -59.5 Z M 28.875 -59.5 "/></g></g></g><g fill="#05397f" fill-opacity="1"><g transform="translate(109.00815, 360.066558)"><g><path d="M 6.890625 -38.328125 C 7.960938 -38.859375 9.085938 -39.078125 10.265625 -38.984375 C 12.460938 -38.691406 13.988281 -38.238281 14.84375 -37.625 C 15.695312 -37.019531 16.125 -36.082031 16.125 -34.8125 C 16.070312 -33.59375 15.566406 -32.503906 14.609375 -31.546875 C 13.660156 -30.597656 12.039062 -29.535156 9.75 -28.359375 C 9.113281 -28.066406 8.109375 -27.238281 6.734375 -25.875 C 5.316406 -24.457031 4.535156 -23.769531 4.390625 -23.8125 C 4.296875 -23.957031 4.359375 -26.046875 4.578125 -30.078125 C 4.796875 -34.109375 4.929688 -36.34375 4.984375 -36.78125 C 5.078125 -37.269531 5.710938 -37.785156 6.890625 -38.328125 Z M 10.40625 -56.140625 C 11.382812 -56.867188 13.460938 -56.570312 16.640625 -55.25 C 18.347656 -54.570312 19.492188 -53.988281 20.078125 -53.5 C 20.660156 -53.007812 21.050781 -52.320312 21.25 -51.4375 C 21.445312 -50.851562 21.128906 -50.171875 20.296875 -49.390625 C 18.785156 -47.679688 16.46875 -46.554688 13.34375 -46.015625 C 11.476562 -45.671875 10.035156 -45.1875 9.015625 -44.5625 C 7.546875 -43.582031 6.8125 -43.335938 6.8125 -43.828125 C 6.8125 -44.015625 7.300781 -45.675781 8.28125 -48.8125 C 9.207031 -51.9375 9.671875 -53.835938 9.671875 -54.515625 C 9.671875 -55.296875 9.914062 -55.835938 10.40625 -56.140625 Z M 43.015625 -9.15625 C 43.109375 -9.644531 43.0625 -9.941406 42.875 -10.046875 C 42.582031 -10.085938 41.273438 -9.890625 38.953125 -9.453125 C 36.628906 -9.015625 35.46875 -8.742188 35.46875 -8.640625 C 35.46875 -8.453125 36.1875 -8.023438 37.625 -7.359375 C 39.070312 -6.703125 40.113281 -6.300781 40.75 -6.15625 C 41.1875 -6.0625 41.5 -6.070312 41.6875 -6.1875 C 41.882812 -6.3125 42.082031 -6.644531 42.28125 -7.1875 C 42.769531 -8.15625 43.015625 -8.8125 43.015625 -9.15625 Z M 35.546875 -21.390625 C 35.492188 -22.367188 35.367188 -22.859375 35.171875 -22.859375 C 34.828125 -22.765625 34.289062 -22.59375 33.5625 -22.34375 C 32.832031 -22.101562 32.394531 -21.9375 32.25 -21.84375 C 32.101562 -21.59375 31.84375 -20.625 31.46875 -18.9375 C 31.101562 -17.257812 30.992188 -16.367188 31.140625 -16.265625 C 31.191406 -16.171875 32.019531 -16.28125 33.625 -16.59375 C 35.238281 -16.914062 36.125 -17.175781 36.28125 -17.375 C 36.320312 -17.414062 36.269531 -17.828125 36.125 -18.609375 C 35.882812 -19.347656 35.691406 -20.273438 35.546875 -21.390625 Z M 46.3125 -24.84375 L 45.4375 -24.84375 C 44.457031 -24.789062 43.222656 -24.554688 41.734375 -24.140625 C 40.242188 -23.722656 39.5 -23.421875 39.5 -23.234375 C 39.5 -23.035156 39.816406 -22.835938 40.453125 -22.640625 C 41.140625 -22.347656 41.894531 -21.738281 42.71875 -20.8125 C 43.257812 -20.269531 43.722656 -19.875 44.109375 -19.625 C 44.503906 -19.382812 44.859375 -19.3125 45.171875 -19.40625 C 45.492188 -19.507812 45.679688 -19.734375 45.734375 -20.078125 C 45.828125 -20.617188 45.921875 -21.523438 46.015625 -22.796875 Z M 37.078125 -32.828125 C 36.691406 -33.410156 36.179688 -33.703125 35.546875 -33.703125 C 34.273438 -33.660156 33.492188 -33.050781 33.203125 -31.875 C 32.859375 -30.75 32.816406 -30.097656 33.078125 -29.921875 C 33.347656 -29.753906 34.242188 -29.894531 35.765625 -30.34375 C 36.785156 -30.675781 37.378906 -30.976562 37.546875 -31.25 C 37.722656 -31.519531 37.566406 -32.046875 37.078125 -32.828125 Z M 47.484375 -35.46875 C 47.484375 -36.394531 47.445312 -36.96875 47.375 -37.1875 C 47.300781 -37.40625 47.09375 -37.515625 46.75 -37.515625 C 46.070312 -37.472656 44.972656 -37.179688 43.453125 -36.640625 C 41.941406 -36.097656 41.1875 -35.679688 41.1875 -35.390625 C 41.1875 -35.242188 41.578125 -34.90625 42.359375 -34.375 C 43.234375 -33.832031 43.722656 -33.316406 43.828125 -32.828125 C 43.921875 -32.535156 44.066406 -32.351562 44.265625 -32.28125 C 44.460938 -32.207031 44.851562 -32.171875 45.4375 -32.171875 C 46.3125 -32.171875 46.867188 -32.351562 47.109375 -32.71875 C 47.359375 -33.082031 47.484375 -34 47.484375 -35.46875 Z M 28.5 -63.6875 C 29.238281 -63.976562 29.945312 -64.085938 30.625 -64.015625 C 31.3125 -63.941406 32.390625 -63.632812 33.859375 -63.09375 C 35.859375 -62.257812 37.03125 -61.378906 37.375 -60.453125 C 37.71875 -59.523438 37.425781 -58.035156 36.5 -55.984375 C 35.863281 -54.128906 35.546875 -53.175781 35.546875 -53.125 C 35.640625 -53.082031 37.320312 -53.546875 40.59375 -54.515625 C 44.257812 -55.742188 46.210938 -56.378906 46.453125 -56.421875 C 47.046875 -56.523438 48.144531 -56.585938 49.75 -56.609375 C 51.363281 -56.628906 52.488281 -56.59375 53.125 -56.5 C 53.957031 -56.257812 54.8125 -55.804688 55.6875 -55.140625 C 56.570312 -54.484375 57.132812 -53.835938 57.375 -53.203125 C 57.8125 -51.984375 57.472656 -51.003906 56.359375 -50.265625 C 56.054688 -50.023438 54.171875 -49.488281 50.703125 -48.65625 C 46.941406 -47.675781 43.914062 -46.847656 41.625 -46.171875 C 39.082031 -45.335938 36.929688 -44.675781 35.171875 -44.1875 L 32.609375 -43.453125 L 31.515625 -44.109375 L 30.40625 -44.84375 L 29.53125 -43.828125 C 28.84375 -43.085938 28.207031 -42.378906 27.625 -41.703125 L 26.671875 -40.59375 L 27.625 -40.890625 C 28.257812 -40.984375 29.101562 -40.773438 30.15625 -40.265625 C 31.207031 -39.753906 31.851562 -39.5 32.09375 -39.5 C 32.34375 -39.5 33.539062 -40.007812 35.6875 -41.03125 C 37.882812 -42.0625 40.226562 -42.941406 42.71875 -43.671875 C 45.207031 -44.453125 46.695312 -45.113281 47.1875 -45.65625 C 47.675781 -46.09375 48.320312 -46.429688 49.125 -46.671875 C 49.9375 -46.921875 50.734375 -47 51.515625 -46.90625 C 52.148438 -46.800781 53.195312 -46.234375 54.65625 -45.203125 C 56.125 -44.179688 57.128906 -43.351562 57.671875 -42.71875 C 58.015625 -42.28125 58.207031 -41.828125 58.25 -41.359375 C 58.300781 -40.898438 58.28125 -39.691406 58.1875 -37.734375 C 58.082031 -35.878906 58.039062 -34.742188 58.0625 -34.328125 C 58.09375 -33.910156 58.253906 -33.703125 58.546875 -33.703125 C 58.796875 -33.660156 59.894531 -33.613281 61.84375 -33.5625 C 63.707031 -33.5625 65.222656 -33.265625 66.390625 -32.671875 C 67.566406 -32.085938 68.71875 -31.066406 69.84375 -29.609375 C 70.863281 -28.285156 71.375 -27.523438 71.375 -27.328125 C 71.375 -27.085938 71.03125 -26.648438 70.34375 -26.015625 C 69.8125 -25.472656 69.25 -25.175781 68.65625 -25.125 C 68.070312 -25.082031 67.097656 -25.257812 65.734375 -25.65625 C 64.410156 -25.894531 62.734375 -26.050781 60.703125 -26.125 C 58.679688 -26.195312 57.570312 -26.113281 57.375 -25.875 C 57.1875 -25.570312 56.96875 -24.640625 56.71875 -23.078125 C 56.476562 -21.804688 56.46875 -21 56.6875 -20.65625 C 56.90625 -20.320312 57.648438 -20.054688 58.921875 -19.859375 C 60.140625 -19.660156 60.941406 -19.4375 61.328125 -19.1875 C 61.722656 -18.945312 62.046875 -18.34375 62.296875 -17.375 L 62.796875 -15.609375 L 62 -14.515625 C 61.070312 -13.285156 59.507812 -12.671875 57.3125 -12.671875 C 56.332031 -12.671875 55.769531 -12.578125 55.625 -12.390625 C 55.625 -12.285156 55.207031 -10.816406 54.375 -7.984375 C 53.59375 -5.347656 52.859375 -3.25 52.171875 -1.6875 C 51.441406 -0.269531 50.550781 1 49.5 2.125 C 48.445312 3.25 47.582031 3.8125 46.90625 3.8125 C 46.3125 3.8125 45.722656 4.03125 45.140625 4.46875 C 44.503906 4.863281 44.015625 5.0625 43.671875 5.0625 C 42.742188 5.0625 41.472656 3.492188 39.859375 0.359375 C 38.929688 -1.390625 37.492188 -3.269531 35.546875 -5.28125 L 32.6875 -8.28125 L 29.671875 -7.625 C 27.617188 -7.132812 26.109375 -6.960938 25.140625 -7.109375 C 24.359375 -7.160156 23.804688 -7.296875 23.484375 -7.515625 C 23.171875 -7.734375 22.644531 -8.207031 21.90625 -8.9375 C 21.175781 -9.820312 20.738281 -10.492188 20.59375 -10.953125 C 20.445312 -11.421875 20.566406 -11.992188 20.953125 -12.671875 C 21.097656 -13.066406 21.363281 -14.128906 21.75 -15.859375 C 22.144531 -17.597656 22.34375 -18.710938 22.34375 -19.203125 C 22.34375 -19.492188 22.023438 -19.710938 21.390625 -19.859375 C 20.660156 -20.003906 19.878906 -20.320312 19.046875 -20.8125 C 18.316406 -21.351562 17.832031 -21.625 17.59375 -21.625 C 17.195312 -21.625 17 -20.207031 17 -17.375 C 16.90625 -14.832031 16.453125 -12.410156 15.640625 -10.109375 C 14.835938 -7.816406 13.847656 -6.15625 12.671875 -5.125 C 12.140625 -4.632812 11.726562 -4.351562 11.4375 -4.28125 C 11.144531 -4.207031 10.703125 -4.195312 10.109375 -4.25 C 9.179688 -4.300781 8.15625 -4.691406 7.03125 -5.421875 C 6.101562 -5.960938 5.175781 -6.523438 4.25 -7.109375 C 3.46875 -7.398438 2.96875 -7.789062 2.75 -8.28125 C 2.53125 -8.769531 2.347656 -9.75 2.203125 -11.21875 C 2.097656 -12.289062 2.070312 -13.007812 2.125 -13.375 C 2.175781 -13.738281 2.394531 -14.140625 2.78125 -14.578125 L 3.515625 -15.46875 L 4.609375 -14.875 L 5.5 -14.296875 L 7.328125 -15.75 C 9.960938 -18.050781 12.453125 -20.691406 14.796875 -23.671875 C 16.410156 -25.722656 17.878906 -27.09375 19.203125 -27.78125 C 19.492188 -27.925781 19.648438 -27.910156 19.671875 -27.734375 C 19.703125 -27.566406 19.59375 -27.285156 19.34375 -26.890625 L 18.765625 -26.015625 L 19.78125 -26.015625 C 20.5625 -26.015625 21.304688 -26.195312 22.015625 -26.5625 C 22.722656 -26.925781 23.148438 -27.351562 23.296875 -27.84375 C 23.597656 -28.53125 23.941406 -30.066406 24.328125 -32.453125 C 24.722656 -34.847656 24.96875 -36.609375 25.0625 -37.734375 L 25.140625 -39.9375 L 23.296875 -39.125 C 22.222656 -38.539062 21.347656 -38.003906 20.671875 -37.515625 C 19.734375 -36.878906 19.242188 -36.804688 19.203125 -37.296875 C 19.097656 -37.585938 19.21875 -38.421875 19.5625 -39.796875 C 20.34375 -43.304688 22.203125 -48.382812 25.140625 -55.03125 C 26.703125 -58.695312 27.429688 -60.96875 27.328125 -61.84375 C 27.179688 -62.53125 27.171875 -62.945312 27.296875 -63.09375 C 27.421875 -63.238281 27.820312 -63.4375 28.5 -63.6875 Z M 28.5 -63.6875 "/></g></g></g><g fill="#05397f" fill-opacity="1"><g transform="translate(192.701505, 360.066558)"><g><path d="M 26.59375 -62.359375 L 28.5 -62.21875 C 29.914062 -62.113281 30.921875 -61.867188 31.515625 -61.484375 C 32.097656 -61.085938 33.097656 -60.523438 34.515625 -59.796875 C 36.367188 -58.867188 37.476562 -58.222656 37.84375 -57.859375 C 38.21875 -57.492188 38.40625 -56.867188 38.40625 -55.984375 C 38.40625 -54.910156 38.015625 -52.984375 37.234375 -50.203125 C 36.441406 -47.460938 36.046875 -45.972656 36.046875 -45.734375 C 36.046875 -45.535156 36.109375 -45.410156 36.234375 -45.359375 C 36.359375 -45.304688 36.601562 -45.316406 36.96875 -45.390625 C 37.332031 -45.460938 37.820312 -45.582031 38.4375 -45.75 C 39.050781 -45.925781 39.914062 -46.1875 41.03125 -46.53125 C 43.570312 -47.363281 45.039062 -47.78125 45.4375 -47.78125 C 46.113281 -47.78125 47.023438 -47.460938 48.171875 -46.828125 C 49.328125 -46.191406 50.46875 -45.359375 51.59375 -44.328125 C 53.101562 -43.015625 54.015625 -42.003906 54.328125 -41.296875 C 54.648438 -40.585938 54.546875 -39.914062 54.015625 -39.28125 C 53.617188 -38.84375 52.304688 -38.171875 50.078125 -37.265625 C 47.859375 -36.359375 45.578125 -35.585938 43.234375 -34.953125 C 40.691406 -34.222656 39.398438 -33.757812 39.359375 -33.5625 C 39.304688 -33.363281 39.570312 -32.898438 40.15625 -32.171875 C 40.738281 -31.535156 41.9375 -30.019531 43.75 -27.625 C 50.144531 -19.175781 55.492188 -13.265625 59.796875 -9.890625 C 61.554688 -8.578125 63.171875 -7.234375 64.640625 -5.859375 C 65.753906 -4.835938 67.070312 -3.789062 68.59375 -2.71875 C 69.8125 -1.832031 70.421875 -1.289062 70.421875 -1.09375 C 70.421875 -0.851562 69.859375 -0.734375 68.734375 -0.734375 C 67.566406 -0.734375 66.59375 -0.515625 65.8125 -0.078125 C 65.269531 0.171875 63.972656 0.757812 61.921875 1.6875 C 56.398438 4.03125 52.03125 3.492188 48.8125 0.078125 C 46.757812 -2.023438 44.425781 -5.003906 41.8125 -8.859375 C 39.195312 -12.722656 36.984375 -16.460938 35.171875 -20.078125 C 33.316406 -23.546875 32.34375 -25.28125 32.25 -25.28125 C 32.144531 -25.28125 31.675781 -23.71875 30.84375 -20.59375 C 30.113281 -17.613281 29.238281 -15.023438 28.21875 -12.828125 C 27.289062 -11.117188 26.191406 -9.359375 24.921875 -7.546875 C 23.648438 -5.742188 22.570312 -4.453125 21.6875 -3.671875 C 20.957031 -3.078125 19.90625 -2.546875 18.53125 -2.078125 C 17.164062 -1.617188 15.992188 -1.390625 15.015625 -1.390625 C 14.140625 -1.390625 12.585938 -1.007812 10.359375 -0.25 C 8.140625 0.5 6.347656 1.21875 4.984375 1.90625 C 3.660156 2.738281 2.925781 3.082031 2.78125 2.9375 C 2.738281 2.882812 3.03125 2.40625 3.65625 1.5 C 4.289062 0.59375 5.109375 -0.503906 6.109375 -1.796875 C 7.117188 -3.085938 8.113281 -4.320312 9.09375 -5.5 C 10.800781 -7.59375 12.019531 -9.15625 12.75 -10.1875 C 14.070312 -12.09375 15.535156 -15.035156 17.140625 -19.015625 C 18.753906 -22.992188 19.585938 -25.691406 19.640625 -27.109375 L 19.71875 -28.28125 L 17.65625 -28.4375 C 16.4375 -28.53125 15.472656 -28.769531 14.765625 -29.15625 C 14.054688 -29.550781 12.773438 -30.628906 10.921875 -32.390625 C 9.398438 -33.710938 8.503906 -34.675781 8.234375 -35.28125 C 7.972656 -35.894531 8.035156 -36.566406 8.421875 -37.296875 C 8.566406 -37.640625 8.757812 -37.820312 9 -37.84375 C 9.25 -37.875 9.816406 -37.863281 10.703125 -37.8125 C 11.679688 -37.613281 12.582031 -37.625 13.40625 -37.84375 C 14.238281 -38.0625 16.097656 -38.757812 18.984375 -39.9375 L 23.015625 -41.484375 L 23.234375 -42.65625 C 23.234375 -42.84375 23.269531 -43.191406 23.34375 -43.703125 C 23.414062 -44.222656 23.523438 -44.882812 23.671875 -45.6875 C 23.816406 -46.5 23.9375 -47.195312 24.03125 -47.78125 C 24.476562 -50.414062 24.773438 -52.585938 24.921875 -54.296875 L 25.140625 -56.9375 L 23.890625 -57.8125 C 23.109375 -58.445312 22.71875 -58.835938 22.71875 -58.984375 C 22.71875 -59.140625 23.378906 -59.726562 24.703125 -60.75 Z M 26.59375 -62.359375 "/></g></g></g><g fill="#05397f" fill-opacity="1"><g transform="translate(276.394851, 360.066558)"><g><path d="M 18.09375 -58.265625 C 18.195312 -58.304688 18.34375 -58.351562 18.53125 -58.40625 C 18.726562 -58.457031 18.828125 -58.484375 18.828125 -58.484375 C 18.972656 -58.484375 19.316406 -58.257812 19.859375 -57.8125 C 20.296875 -57.425781 20.757812 -57.234375 21.25 -57.234375 C 21.738281 -57.234375 23.109375 -57.378906 25.359375 -57.671875 L 26.828125 -57.890625 L 26.53125 -57.015625 C 26.425781 -56.035156 26.300781 -54.9375 26.15625 -53.71875 C 25.863281 -52.050781 25.398438 -50.65625 24.765625 -49.53125 C 24.128906 -48.414062 23.445312 -47.742188 22.71875 -47.515625 C 21.988281 -47.296875 21.234375 -47.53125 20.453125 -48.21875 C 19.421875 -49.34375 18.570312 -51.25 17.90625 -53.9375 C 17.25 -56.625 17.3125 -58.066406 18.09375 -58.265625 Z M 28 -59.875 C 28.382812 -60.851562 29.1875 -60.851562 30.40625 -59.875 L 31.515625 -59.140625 L 34.953125 -59.796875 C 37.148438 -60.191406 38.375 -60.265625 38.625 -60.015625 C 38.8125 -59.867188 38.738281 -59.085938 38.40625 -57.671875 C 38.0625 -56.347656 37.890625 -55.222656 37.890625 -54.296875 C 37.890625 -53.171875 37.570312 -52.207031 36.9375 -51.40625 C 36.300781 -50.601562 35.519531 -50.203125 34.59375 -50.203125 C 32.78125 -50.203125 31.238281 -51.421875 29.96875 -53.859375 C 29.53125 -54.785156 29.039062 -55.566406 28.5 -56.203125 C 27.625 -57.234375 27.457031 -58.457031 28 -59.875 Z M 30.921875 -10.046875 C 30.828125 -10.335938 30.65625 -10.484375 30.40625 -10.484375 C 29.96875 -10.429688 28.515625 -10.070312 26.046875 -9.40625 C 23.578125 -8.75 22.34375 -8.375 22.34375 -8.28125 C 22.34375 -8.082031 22.832031 -7.910156 23.8125 -7.765625 C 24.550781 -7.671875 25.847656 -7.5 27.703125 -7.25 C 29.117188 -7.0625 30.019531 -6.96875 30.40625 -6.96875 C 30.601562 -6.96875 30.773438 -7.378906 30.921875 -8.203125 C 31.066406 -9.035156 31.066406 -9.648438 30.921875 -10.046875 Z M 44.5625 -62.953125 C 45.1875 -63.441406 45.71875 -63.707031 46.15625 -63.75 C 46.601562 -63.800781 47.21875 -63.65625 48 -63.3125 C 49.175781 -62.675781 50.226562 -62.09375 51.15625 -61.5625 C 53.101562 -60.53125 54.078125 -59.40625 54.078125 -58.1875 C 54.078125 -57.789062 53.722656 -57.078125 53.015625 -56.046875 C 52.304688 -55.023438 51.460938 -54.003906 50.484375 -52.984375 C 50.242188 -52.585938 50.035156 -52.289062 49.859375 -52.09375 C 49.691406 -51.90625 49.570312 -51.722656 49.5 -51.546875 C 49.425781 -51.378906 49.390625 -51.257812 49.390625 -51.1875 C 49.390625 -51.113281 49.4375 -51.050781 49.53125 -51 C 50.507812 -50.613281 51.976562 -50.738281 53.9375 -51.375 L 55.6875 -51.890625 L 56.859375 -50.859375 C 57.546875 -50.171875 58.351562 -49.5625 59.28125 -49.03125 C 60.84375 -48.050781 61.832031 -47.171875 62.25 -46.390625 C 62.664062 -45.609375 62.628906 -44.628906 62.140625 -43.453125 C 61.753906 -42.617188 61.082031 -41.628906 60.125 -40.484375 C 59.175781 -39.335938 58.210938 -38.421875 57.234375 -37.734375 C 56.546875 -37.148438 55.648438 -36.601562 54.546875 -36.09375 C 53.453125 -35.582031 52.757812 -35.328125 52.46875 -35.328125 C 52.03125 -35.328125 51.664062 -35.082031 51.375 -34.59375 C 51.082031 -34.101562 50.984375 -33.566406 51.078125 -32.984375 C 51.171875 -32.492188 51.046875 -31.878906 50.703125 -31.140625 C 50.367188 -30.410156 49.585938 -29.363281 48.359375 -28 C 47.429688 -26.875 46.171875 -25.769531 44.578125 -24.6875 C 42.992188 -23.613281 41.71875 -23.003906 40.75 -22.859375 C 40.007812 -22.710938 39.640625 -22.46875 39.640625 -22.125 C 39.640625 -21.832031 39.75 -21.648438 39.96875 -21.578125 C 40.195312 -21.503906 40.820312 -21.492188 41.84375 -21.546875 C 43.257812 -21.546875 45.648438 -21.8125 49.015625 -22.34375 C 52.390625 -22.882812 54.738281 -23.375 56.0625 -23.8125 C 57.28125 -24.25 58.328125 -24.421875 59.203125 -24.328125 C 60.085938 -24.234375 61.039062 -23.867188 62.0625 -23.234375 C 63.238281 -22.546875 64.253906 -21.40625 65.109375 -19.8125 C 65.960938 -18.226562 66.269531 -16.875 66.03125 -15.75 C 65.925781 -15.113281 65.554688 -14.40625 64.921875 -13.625 L 64.046875 -12.453125 L 62.4375 -13.34375 L 60.890625 -14.21875 L 53.5625 -13.625 C 46.382812 -13.039062 42.453125 -12.503906 41.765625 -12.015625 C 41.523438 -11.773438 41.40625 -10.039062 41.40625 -6.8125 C 41.40625 -3.832031 41.242188 -1.742188 40.921875 -0.546875 C 40.609375 0.648438 39.960938 1.738281 38.984375 2.71875 C 37.421875 4.320312 35.585938 4.953125 33.484375 4.609375 C 32.660156 4.566406 31.78125 4.191406 30.84375 3.484375 C 29.914062 2.773438 29.429688 2.148438 29.390625 1.609375 C 29.285156 1.171875 28.769531 0.289062 27.84375 -1.03125 C 26.863281 -2.195312 26.425781 -3 26.53125 -3.4375 C 26.625 -3.6875 26.507812 -3.941406 26.1875 -4.203125 C 25.875 -4.472656 25.226562 -4.90625 24.25 -5.5 C 22.644531 -6.476562 21.207031 -7.097656 19.9375 -7.359375 C 18.664062 -7.628906 17.175781 -7.59375 15.46875 -7.25 C 13.945312 -7.0625 12.878906 -7.113281 12.265625 -7.40625 C 11.660156 -7.695312 10.695312 -8.550781 9.375 -9.96875 C 8.15625 -11.382812 7.472656 -12.238281 7.328125 -12.53125 C 7.179688 -12.820312 7.300781 -13.238281 7.6875 -13.78125 C 7.988281 -14.125 8.234375 -14.332031 8.421875 -14.40625 C 8.617188 -14.476562 8.960938 -14.488281 9.453125 -14.4375 C 10.179688 -14.289062 12.425781 -14.753906 16.1875 -15.828125 C 20.050781 -17.003906 23.425781 -17.929688 26.3125 -18.609375 C 28.851562 -19.097656 30.304688 -19.523438 30.671875 -19.890625 C 31.035156 -20.265625 30.703125 -21.007812 29.671875 -22.125 C 28.941406 -22.8125 28.597656 -23.265625 28.640625 -23.484375 C 28.691406 -23.703125 29.207031 -24.082031 30.1875 -24.625 C 30.925781 -25.007812 31.757812 -25.054688 32.6875 -24.765625 L 33.859375 -24.40625 L 35.25 -25.9375 C 36.375 -27.207031 36.765625 -27.84375 36.421875 -27.84375 C 35.984375 -27.945312 34.125 -27.382812 30.84375 -26.15625 C 27.476562 -25.082031 24.988281 -24.351562 23.375 -23.96875 C 21.863281 -23.625 20.835938 -23.546875 20.296875 -23.734375 C 19.765625 -23.929688 18.738281 -24.71875 17.21875 -26.09375 C 16.382812 -26.914062 15.859375 -27.484375 15.640625 -27.796875 C 15.421875 -28.117188 15.335938 -28.523438 15.390625 -29.015625 C 15.441406 -29.453125 15.550781 -29.734375 15.71875 -29.859375 C 15.882812 -29.984375 16.3125 -30.09375 17 -30.1875 C 18.125 -30.332031 20.738281 -31.140625 24.84375 -32.609375 C 28.695312 -33.929688 32.550781 -35.09375 36.40625 -36.09375 C 40.269531 -37.09375 42.960938 -37.640625 44.484375 -37.734375 C 45.554688 -37.785156 46.238281 -37.785156 46.53125 -37.734375 C 46.820312 -37.691406 47.113281 -37.5 47.40625 -37.15625 L 48 -36.34375 L 48.734375 -38.625 C 49.171875 -39.988281 49.363281 -40.828125 49.3125 -41.140625 C 49.269531 -41.460938 48.976562 -41.625 48.4375 -41.625 C 46.820312 -41.625 41.617188 -40.671875 32.828125 -38.765625 C 24.960938 -37.003906 20.25 -36.175781 18.6875 -36.28125 L 16.703125 -36.34375 L 16.125 -34.65625 C 15.632812 -33.4375 15 -32.046875 14.21875 -30.484375 L 12.890625 -28.21875 L 11.71875 -28.359375 C 10.894531 -28.453125 10.335938 -28.648438 10.046875 -28.953125 C 9.597656 -29.285156 9.191406 -29.976562 8.828125 -31.03125 C 8.460938 -32.082031 8.234375 -33.171875 8.140625 -34.296875 L 7.921875 -36.640625 L 9.8125 -40.53125 C 11.082031 -43.0625 11.867188 -44.71875 12.171875 -45.5 C 12.410156 -46.289062 12.648438 -46.6875 12.890625 -46.6875 C 13.378906 -46.6875 14.023438 -46.476562 14.828125 -46.0625 C 15.640625 -45.644531 16.289062 -45.191406 16.78125 -44.703125 L 17.875 -43.671875 L 22.859375 -45.359375 C 26.179688 -46.390625 29.285156 -47.269531 32.171875 -48 C 35.097656 -48.726562 36.757812 -49.289062 37.15625 -49.6875 C 37.5 -49.976562 38.425781 -51.234375 39.9375 -53.453125 C 41.445312 -55.679688 42.59375 -57.503906 43.375 -58.921875 C 43.769531 -59.554688 43.988281 -60.003906 44.03125 -60.265625 C 44.082031 -60.535156 44.035156 -60.867188 43.890625 -61.265625 C 43.742188 -61.648438 43.707031 -61.925781 43.78125 -62.09375 C 43.851562 -62.269531 44.113281 -62.554688 44.5625 -62.953125 Z M 44.5625 -62.953125 "/></g></g></g></svg>